<?xml version="1.0" encoding="UTF-8" standalone="no"?>
<!-- Created with Inkscape (http://www.inkscape.org/) -->

<svg
   width="135.1573mm"
   height="107.52695mm"
   viewBox="0 0 135.1573 107.52695"
   version="1.1"
   id="svg1"
   xml:space="preserve"
   xmlns:inkscape="http://www.inkscape.org/namespaces/inkscape"
   xmlns:sodipodi="http://sodipodi.sourceforge.net/DTD/sodipodi-0.dtd"
   xmlns="http://www.w3.org/2000/svg"
   xmlns:svg="http://www.w3.org/2000/svg"><sodipodi:namedview
     id="namedview1"
     pagecolor="#505050"
     bordercolor="#ffffff"
     borderopacity="1"
     inkscape:showpageshadow="0"
     inkscape:pageopacity="0"
     inkscape:pagecheckerboard="1"
     inkscape:deskcolor="#505050"
     inkscape:document-units="mm"><inkscape:page
       x="0"
       y="0"
       width="135.1573"
       height="107.52695"
       id="page2"
       margin="0"
       bleed="0" /></sodipodi:namedview><defs
     id="defs1" /><g
     inkscape:label="Layer 1"
     inkscape:groupmode="layer"
     id="layer1"
     transform="translate(-22.950385,-127.45276)"><path
       style="fill:#000000"
       d="m 47.921028,234.71595 c -2.645717,-0.16886 -3.488774,-0.5761 -4.82869,-2.33252 l -0.726999,-0.95297 -0.06881,-21.31972 -0.06881,-21.31972 9.972512,-8.20209 c 5.484881,-4.51114 14.445533,-11.88155 19.912561,-16.37868 8.049357,-6.62132 16.301901,-13.32213 18.194922,-14.7737 0.40455,-0.31021 4.798107,3.23829 42.412836,34.25519 l 6.21771,5.12709 0.0672,14.80276 c 0.037,8.14152 -0.0226,17.72998 -0.13229,21.30769 l -0.19949,6.50493 -0.75714,1.09254 c -0.45271,0.65325 -1.25058,1.33563 -1.98438,1.69715 l -1.22723,0.60462 -16.60261,0.0756 -16.6026,0.0756 V 218.83065 202.68164 H 90.6518 79.803883 v 16.13958 16.13959 l -14.750521,-0.0464 c -8.112787,-0.0255 -15.822337,-0.11483 -17.132334,-0.19844 z M 28.352815,189.12174 c -1.562327,-1.61654 -4.095421,-4.7523 -4.88443,-6.04652 -1.12371,-1.84322 -0.986501,-2.02116 6.329246,-8.20788 17.265005,-14.60052 43.62452,-36.53086 52.695096,-43.84078 1.842667,-1.48499 3.866729,-2.89785 4.497917,-3.13968 1.451207,-0.556 5.733202,-0.58445 7.170127,-0.0476 1.117904,0.41764 5.745167,4.05381 16.070199,12.62822 l 7.01146,5.82266 0.16428,-3.88497 c 0.0904,-2.13673 0.17965,-5.8615 0.19844,-8.27726 0.0372,-4.78249 0.24532,-5.82892 1.2504,-6.28687 0.45217,-0.20602 3.48073,-0.30105 9.59462,-0.30105 h 8.93388 l 0.71096,0.74208 0.71096,0.74208 3.5e-4,6.86469 c 1.9e-4,3.77558 0.0789,11.76176 0.17483,17.74707 l 0.17448,10.88238 7.68205,6.44783 c 4.22512,3.54631 8.49223,7.20639 9.48246,8.13353 2.622,2.45492 2.53535,2.91489 -1.43773,7.63193 -2.44075,2.89777 -3.47579,3.77925 -4.43767,3.77925 -0.94231,0 -5.6217,-3.8111 -50.893764,-41.45007 l -8.962171,-7.4511 -5.458607,4.53146 c -3.002233,2.49231 -13.852513,11.50579 -24.111732,20.02997 -30.458968,25.30773 -29.251543,24.33974 -30.360277,24.33974 -0.814733,0 -1.169476,-0.21375 -2.305374,-1.38907 z"
       id="path1"
       inkscape:export-filename="home-white.svg"
       inkscape:export-xdpi="96"
       inkscape:export-ydpi="96" /></g></svg>
