<?xml version="1.0" encoding="UTF-8" standalone="no"?>
<!-- Created with Inkscape (http://www.inkscape.org/) -->

<svg
   width="135.14111mm"
   height="113.91103mm"
   viewBox="0 0 135.14111 113.91103"
   version="1.1"
   id="svg1"
   xml:space="preserve"
   xmlns:inkscape="http://www.inkscape.org/namespaces/inkscape"
   xmlns:sodipodi="http://sodipodi.sourceforge.net/DTD/sodipodi-0.dtd"
   xmlns="http://www.w3.org/2000/svg"
   xmlns:svg="http://www.w3.org/2000/svg"><sodipodi:namedview
     id="namedview1"
     pagecolor="#505050"
     bordercolor="#ffffff"
     borderopacity="1"
     inkscape:showpageshadow="0"
     inkscape:pageopacity="0"
     inkscape:pagecheckerboard="1"
     inkscape:deskcolor="#505050"
     inkscape:document-units="mm"><inkscape:page
       x="0"
       y="0"
       width="135.14111"
       height="113.91103"
       id="page2"
       margin="0"
       bleed="0" /></sodipodi:namedview><defs
     id="defs1" /><g
     inkscape:label="Layer 1"
     inkscape:groupmode="layer"
     id="layer1"
     transform="translate(-172.91343,-147.39704)"><path
       style="fill:#ffffff"
       d="m 220.06964,261.06606 c -2.37275,-0.39005 -4.18762,-2.19675 -4.63439,-4.61353 -0.17585,-0.95127 -0.24724,-6.41707 -0.19663,-15.0539 0.0771,-13.15606 0.0959,-13.59192 0.63194,-14.6187 1.21572,-2.32888 4.09492,-3.61588 6.8225,-3.04963 1.88674,0.39168 3.00172,1.16464 3.99388,2.76875 l 0.80199,1.29663 0.0801,10.53848 0.0801,10.53849 h 33.98498 33.98497 v -44.5823 -44.5823 h -33.98497 -33.98498 l -0.0801,10.53849 -0.0801,10.53848 -0.80199,1.29663 c -0.99216,1.60411 -2.10714,2.37706 -3.99388,2.76875 -2.72758,0.56624 -5.60678,-0.72075 -6.8225,-3.04964 -0.53599,-1.02677 -0.55484,-1.46264 -0.63194,-14.61868 -0.0496,-8.45966 0.0222,-14.11048 0.19089,-15.02286 0.31015,-1.67775 1.14624,-2.90686 2.71862,-3.99652 l 1.09345,-0.75777 h 42.22368 c 48.33768,0 43.31677,-0.28616 45.43362,2.58938 l 1.15568,1.56987 v 48.08265 c 0,26.44546 -0.0786,50.25328 -0.17473,52.90627 -0.17172,4.74069 -0.18783,4.84341 -0.93763,5.97539 -0.4196,0.63348 -1.33366,1.51804 -2.03125,1.96568 l -1.26835,0.8139 -41.25183,-0.0331 c -22.68852,-0.0182 -41.73302,-0.11222 -42.32113,-0.20889 z m 26.56987,-32.00798 c -1.75837,-0.87922 -2.81071,-1.87469 -3.37949,-3.19684 -0.70566,-1.64037 -0.71487,-3.48404 -0.0245,-4.9101 0.30107,-0.62193 2.49669,-3.13139 5.04559,-5.76681 l 4.51258,-4.66573 -37.78778,-0.0714 -37.78779,-0.0714 -1.2478,-0.73351 c -2.26209,-1.32973 -3.32666,-3.50694 -2.99861,-6.13258 0.23435,-1.8757 1.1088,-3.27429 2.77503,-4.43837 l 1.42947,-0.99867 h 12.21415 c 6.71778,0 23.66366,-0.0792 37.65751,-0.17593 l 25.44336,-0.17593 -4.08453,-4.15515 c -4.93182,-5.01708 -5.70522,-6.12648 -5.70162,-8.17864 0.006,-3.62622 2.77097,-6.36435 6.42585,-6.36435 1.15159,0 1.65765,0.15851 2.69071,0.84278 2.44365,1.6186 20.51591,19.80588 21.84232,21.98133 0.7177,1.17711 0.7177,3.71009 0,4.8872 -1.34155,2.20027 -19.19953,20.16426 -21.75825,21.88739 -1.18381,0.79723 -1.60816,0.93515 -2.84968,0.92618 -0.85896,-0.006 -1.85253,-0.20745 -2.41649,-0.48944 z"
       id="path2"
       inkscape:export-filename="signin-black.svg"
       inkscape:export-xdpi="96"
       inkscape:export-ydpi="96" /></g></svg>
