<?xml version="1.0" encoding="UTF-8" standalone="no"?>
<!-- Created with Inkscape (http://www.inkscape.org/) -->

<svg
   width="124.81594mm"
   height="108.67355mm"
   viewBox="0 0 124.81594 108.67355"
   version="1.1"
   id="svg1"
   xml:space="preserve"
   xmlns:inkscape="http://www.inkscape.org/namespaces/inkscape"
   xmlns:sodipodi="http://sodipodi.sourceforge.net/DTD/sodipodi-0.dtd"
   xmlns="http://www.w3.org/2000/svg"
   xmlns:svg="http://www.w3.org/2000/svg"><sodipodi:namedview
     id="namedview1"
     pagecolor="#505050"
     bordercolor="#ffffff"
     borderopacity="1"
     inkscape:showpageshadow="0"
     inkscape:pageopacity="0"
     inkscape:pagecheckerboard="1"
     inkscape:deskcolor="#505050"
     inkscape:document-units="mm"><inkscape:page
       x="-1.3383566e-13"
       y="0"
       width="124.81593"
       height="108.67355"
       id="page2"
       margin="0"
       bleed="0" /></sodipodi:namedview><defs
     id="defs1" /><g
     inkscape:label="Layer 1"
     inkscape:groupmode="layer"
     id="layer1"
     transform="translate(-350.48546,-135.9353)"><path
       style="fill:#f9f9f9"
       d="m 366.68992,244.34485 c -3.15651,-0.21595 -4.81512,-0.68675 -7.51046,-2.13187 -4.83644,-2.59308 -7.30718,-6.74106 -8.38968,-14.08495 -0.52451,-3.55833 -0.38535,-6.258 0.52909,-10.26451 2.01603,-8.83294 5.81492,-15.94234 10.66335,-19.95585 2.01388,-1.66707 5.74928,-3.6164 8.14728,-4.25168 2.54802,-0.67503 6.14853,-0.79427 7.76554,-0.25719 0.7481,0.24848 3.35502,1.65425 5.79315,3.12393 9.4974,5.72495 15.15053,7.37079 24.01214,6.99085 7.5234,-0.32255 12.44965,-2.05111 21.13846,-7.41719 4.70535,-2.90595 5.57703,-3.20037 8.87005,-2.99598 3.05668,0.18972 5.0903,0.706 7.57779,1.92379 6.28616,3.07748 11.40048,10.07425 14.24138,19.48327 2.27854,7.54646 2.32667,12.83072 0.17412,19.11848 -1.7103,4.99594 -4.40729,7.65088 -10.33407,10.17295 l -1.90335,0.80995 -39.06448,-0.0415 c -21.48546,-0.0228 -40.25511,-0.12295 -41.71031,-0.22251 z m 35.45416,-47.10326 c -13.0386,-1.20358 -24.30123,-11.94627 -26.72647,-25.49267 -0.37011,-2.06729 -0.43577,-3.42119 -0.31436,-6.48229 0.24101,-6.07675 1.52783,-10.06542 4.91875,-15.24632 8.05801,-12.31165 24.08513,-17.398 37.33562,-11.84881 5.95379,2.4934 11.77183,7.56362 15.26626,13.30402 5.11257,8.39856 5.34294,20.58953 0.55497,29.36875 -5.25145,9.62908 -13.66204,15.31371 -24.24978,16.39017 -2.96875,0.30183 -3.58555,0.30248 -6.78499,0.007 z m 54.10729,-10.31191 v -6.08541 h -5.82083 -5.82083 v -3.43959 -3.43958 h 5.82083 5.82083 v -6.48229 -6.48229 h 3.26903 3.26904 l 0.16867,1.78594 c 0.0928,0.98226 0.17055,3.21468 0.17285,4.96093 0.002,1.74625 0.0793,3.80008 0.17103,4.56407 l 0.16684,1.38906 2.54283,10e-4 c 1.39856,5.9e-4 4.06088,0.0785 5.91628,0.17312 l 3.37343,0.17205 v 3.39875 3.39876 h -6.21771 -6.2177 v 6.08541 6.08542 h -3.3073 -3.30729 z"
       id="path3" /></g></svg>
